<svg width="400" height="465" viewBox="0 0 400 465" fill="none" xmlns="http://www.w3.org/2000/svg">
<path d="M0.955386 154.881C0.955386 165.138 4.77647 174.973 11.5802 182.226C18.3839 189.479 27.6109 193.552 37.23 193.552V386.904C37.23 407.418 44.8753 427.089 58.4829 441.594C72.0876 456.096 90.5444 464.245 109.785 464.245H291.17C310.412 464.245 328.869 456.096 342.473 441.594C356.08 427.088 363.725 407.417 363.725 386.904V193.552C373.344 193.552 382.571 189.479 389.375 182.226C396.18 174.974 400 165.138 400 154.881V116.213C400 105.956 396.179 96.1208 389.375 88.8675C382.571 81.6142 373.344 77.5417 363.725 77.5417H291.17V38.8705C291.17 28.6134 287.349 18.7783 280.545 11.525C273.741 4.27572 264.514 0.19928 254.892 0.19928H146.06C136.438 0.19928 127.212 4.27581 120.407 11.525C113.604 18.7777 109.783 28.6134 109.783 38.8705V77.5417H37.2268C27.6077 77.5417 18.3813 81.6149 11.577 88.8675C4.77258 96.1201 0.952148 105.956 0.952148 116.213L0.955386 154.881ZM327.449 386.903C327.449 397.16 323.625 406.995 316.824 414.248C310.02 421.501 300.794 425.574 291.171 425.574H109.786C100.163 425.574 90.9371 421.501 84.1327 414.248C77.3321 406.996 73.5079 397.16 73.5079 386.903V193.551H327.447L327.449 386.903ZM146.064 38.8696H254.895V77.5409H146.064V38.8696ZM37.2325 116.212H363.726V154.883L37.2325 154.88V116.212Z" fill="#CA0606"/>
<path d="M127.926 386.902C132.737 386.902 137.352 384.865 140.752 381.241C144.156 377.613 146.066 372.696 146.066 367.568V251.557C146.066 244.651 142.609 238.268 136.998 234.813C131.383 231.36 124.468 231.36 118.858 234.813C113.246 238.269 109.789 244.651 109.789 251.557V367.568C109.789 372.696 111.7 377.613 115.103 381.241C118.503 384.865 123.118 386.902 127.926 386.902H127.926Z" fill="#CA0606"/>
<path d="M200.48 386.902C205.292 386.902 209.904 384.865 213.307 381.241C216.707 377.613 218.618 372.696 218.618 367.568V251.557C218.618 244.651 215.161 238.268 209.549 234.813C203.938 231.36 197.023 231.36 191.412 234.813C185.801 238.269 182.344 244.651 182.344 251.557V367.568C182.344 372.696 184.255 377.613 187.655 381.241C191.058 384.865 195.67 386.902 200.481 386.902H200.48Z" fill="#CA0606"/>
<path d="M273.035 386.902C277.843 386.902 282.458 384.865 285.858 381.241C289.262 377.613 291.172 372.696 291.172 367.568V251.557C291.172 244.651 287.715 238.268 282.104 234.813C276.492 231.36 269.578 231.36 263.964 234.813C258.352 238.269 254.895 244.651 254.895 251.557V367.568C254.895 372.696 256.806 377.613 260.209 381.241C263.609 384.865 268.224 386.902 273.036 386.902H273.035Z" fill="#CA0606"/>
</svg>
