<svg width="642" height="642" viewBox="0 0 642 642" fill="none" xmlns="http://www.w3.org/2000/svg">
<g clip-path="url(#clip0_192_7)">
<path d="M156.648 172.551H333.015L291.926 213.64L320.994 242.709L397.16 166.543C401.019 162.688 403.186 157.461 403.186 152.008C403.186 146.555 401.019 141.328 397.16 137.473L320.994 61.3069L291.926 90.3758L333.015 131.465H156.648V172.551Z" fill="#5C5B5B"/>
<path d="M444.264 213.639H485.353V254.728H444.264V213.639Z" fill="#5C5B5B"/>
<path d="M444.264 131.463H485.353V172.552H444.264V131.463Z" fill="#5C5B5B"/>
<path d="M444.264 49.2867H485.353V90.3757H444.264V49.2867Z" fill="#5C5B5B"/>
<path d="M269.64 28.7429H423.719V-12.3461H269.64C253.293 -12.3461 237.619 -5.85449 226.061 5.70694C214.5 17.2648 208.008 32.9379 208.008 49.286V90.375H249.097V49.286C249.097 43.8368 251.261 38.6132 255.112 34.7584C258.967 30.9071 264.19 28.7432 269.639 28.7432L269.64 28.7429Z" fill="#5C5B5B"/>
<path d="M423.72 275.271H269.64C264.191 275.271 258.967 273.107 255.112 269.255C251.261 265.401 249.097 260.177 249.097 254.728V213.639H208.008V254.728C208.008 271.075 214.5 286.749 226.061 298.307C237.619 309.867 253.292 316.36 269.64 316.36H423.72L423.72 275.271Z" fill="#5C5B5B"/>
</g>
<defs>
<clipPath id="clip0_192_7">
<rect width="642" height="642" fill="white"/>
</clipPath>
</defs>
</svg>
