<svg width="257" height="207" viewBox="0 0 257 207" fill="none" xmlns="http://www.w3.org/2000/svg">
<path fill-rule="evenodd" clip-rule="evenodd" d="M182.074 154.794H173.294C162.408 154.794 152.819 148.19 147.017 138.192C143.397 146.796 138.455 154.691 132.499 161.695C142.948 173.357 157.376 180.593 173.294 180.593H182.074C187.401 195.569 201.508 206.392 218.222 206.392C239.453 206.392 256.731 189.029 256.731 167.694C256.731 146.358 239.453 128.995 218.222 128.995C201.508 128.995 187.401 139.818 182.074 154.794V154.794ZM231.06 167.694C231.06 174.814 225.296 180.593 218.223 180.593C211.15 180.593 205.386 174.814 205.386 167.694C205.386 160.573 211.15 154.794 218.223 154.794C225.296 154.794 231.06 160.573 231.06 167.694V167.694Z" fill="#535353"/>
<path fill-rule="evenodd" clip-rule="evenodd" d="M74.6448 51.598H79.1504C91.7944 51.598 102.924 58.4993 109.445 68.9479C112.962 60.3697 117.737 52.4494 123.565 45.432C112.294 33.3581 96.5825 25.799 79.1632 25.799H74.6576C69.3304 10.8227 55.223 -2.55619e-05 38.5098 -2.55619e-05C17.2781 -2.55619e-05 7.62939e-06 17.3627 7.62939e-06 38.6985C7.62939e-06 60.0343 17.2781 77.397 38.5098 77.397C55.223 77.397 69.3304 66.5743 74.6448 51.598V51.598ZM25.6724 38.6983C25.6724 31.5778 31.4361 25.7988 38.509 25.7988C45.582 25.7988 51.3456 31.5778 51.3456 38.6983C51.3456 45.8188 45.582 51.5978 38.509 51.5978C31.4361 51.5978 25.6724 45.8188 25.6724 38.6983V38.6983Z" fill="#535353"/>
<path fill-rule="evenodd" clip-rule="evenodd" d="M181.817 26.6375C144.424 31.9263 115.529 64.188 115.529 103.196C115.529 128.17 97.8019 149.015 74.3367 153.762C68.7399 139.315 54.8379 128.995 38.5098 128.995C17.278 128.995 0 146.358 0 167.694C0 189.029 17.278 206.392 38.5098 206.392C55.5311 206.392 69.831 195.17 74.9143 179.755C112.307 174.466 141.202 142.204 141.202 103.196C141.202 78.2226 158.93 57.377 182.395 52.63C187.992 67.0774 201.894 77.3971 218.222 77.3971C239.454 77.3971 256.732 60.0343 256.732 38.6985C256.732 17.3627 239.454 7.93531e-07 218.222 7.9353e-07C201.201 7.9353e-07 186.901 11.2226 181.817 26.6375V26.6375ZM25.6724 167.694C25.6724 160.573 31.4361 154.794 38.509 154.794C45.582 154.794 51.3456 160.573 51.3456 167.694C51.3456 174.814 45.582 180.593 38.509 180.593C31.4361 180.593 25.6724 174.814 25.6724 167.694V167.694ZM231.06 38.6989C231.06 45.8194 225.296 51.5984 218.223 51.5984C211.15 51.5984 205.387 45.8194 205.387 38.6989C205.387 31.5784 211.15 25.7994 218.223 25.7994C225.296 25.7994 231.06 31.5784 231.06 38.6989V38.6989Z" fill="#535353"/>
</svg>
